
            <svg xmlns="http://www.w3.org/2000/svg" xmlns:cc="http://creativecommons.org/ns#" xmlns:rdf="http://www.w3.org/1999/02/22-rdf-syntax-ns#" version="1.1" width="366.984375" height="99">
              <defs>
                <style type="text/css">svg {
            background-color: #fff; }
          
          .root text,
          .root tspan {
            font: 12px Arial; }
          
          .root path {
            fill-opacity: 0;
            stroke-width: 2px;
            stroke: #000; }
          
          .root circle {
            fill: #6b6659;
            stroke-width: 2px;
            stroke: #000; }
          
          .anchor text, .any-character text {
            fill: #fff; }
          
          .anchor rect, .any-character rect {
            fill: #6b6659; }
          
          .escape text, .charset-escape text, .literal text {
            fill: #000; }
          
          .escape rect, .charset-escape rect {
            fill: #bada55; }
          
          .literal rect {
            fill: #dae9e5; }
          
          .charset .charset-box {
            fill: #cbcbba; }
          
          .subexp .subexp-label tspan,
          .charset .charset-label tspan,
          .match-fragment .repeat-label tspan {
            font-size: 10px; }
          
          .repeat-label {
            cursor: help; }
          
          .subexp .subexp-label tspan,
          .charset .charset-label tspan {
            dominant-baseline: text-after-edge; }
          
          .subexp .subexp-box {
            stroke: #908c83;
            stroke-dasharray: 6,2;
            stroke-width: 2px;
            fill-opacity: 0; }
          
          .quote {
            fill: #908c83; }
          </style>
              </defs>
              <metadata>
                <rdf:rdf>
                  <cc:license rdf:about="http://creativecommons.org/licenses/by/3.0/">
                    <cc:permits rdf:resource="http://creativecommons.org/ns#Reproduction"></cc:permits>
                    <cc:permits rdf:resource="http://creativecommons.org/ns#Distribution"></cc:permits>
                    <cc:requires rdf:resource="http://creativecommons.org/ns#Notice"></cc:requires>
                    <cc:requires rdf:resource="http://creativecommons.org/ns#Attribution"></cc:requires>
                    <cc:permits rdf:resource="http://creativecommons.org/ns#DerivativeWorks"></cc:permits>
                  </cc:license>
                </rdf:rdf>
              </metadata>
            <desc>Created with Snap</desc><g transform="matrix(1,0,0,1,15,11)" class="root"><g transform="matrix(1,0,0,1,10,0)" class="regexp match"><path d="M52.671875,33H87.6719M109.656275,33H139.6563M172.328175,33H207.3281M229.312475,33H259.3125"></path><g transform="matrix(1,0,0,1,0,0)" class="match-fragment subexp"><rect rx="3" ry="3" class="subexp-box" transform="matrix(1,0,0,1,0,11)" width="77.671875" height="67"></rect><text x="0" y="0" transform="matrix(1,0,0,1,0,11)" class="subexp-label"><tspan>group #1</tspan></text><g transform="matrix(1,0,0,1,10,21)" class="regexp match match-fragment"><path d="M10,12q-10,0 -10,10v2q0,10 10,10h32.671875q10,0 10,-10v-2q0,-10 -10,-10M52.671875,27l5,-5m-5,5l-5,-5"></path><g transform="matrix(1,0,0,1,10,0)" class="escape"><g class="label"><rect width="32.671875" height="24" rx="3" ry="3"></rect><text x="0" y="0" transform="matrix(1,0,0,1,5,17)"><tspan>digit</tspan></text></g></g><text x="0" y="0" transform="matrix(1,0,0,1,25.4531,45)" class="repeat-label"><tspan>3 times</tspan><title><text x="0" y="0">repeats 4 times in total</text></title></text></g></g><g transform="matrix(1,0,0,1,87.6719,21)" class="match-fragment literal"><g class="label"><rect width="21.984375" height="24" rx="3" ry="3"></rect><text x="0" y="0" transform="matrix(1,0,0,1,5,17)"><tspan class="quote">“</tspan><tspan>-</tspan><tspan class="quote">”</tspan></text></g></g><g transform="matrix(1,0,0,1,119.6563,0)" class="match-fragment subexp"><rect rx="3" ry="3" class="subexp-box" transform="matrix(1,0,0,1,0,11)" width="77.671875" height="67"></rect><text x="0" y="0" transform="matrix(1,0,0,1,0,11)" class="subexp-label"><tspan>group #2</tspan></text><g transform="matrix(1,0,0,1,10,21)" class="regexp match match-fragment"><path d="M10,12q-10,0 -10,10v2q0,10 10,10h32.671875q10,0 10,-10v-2q0,-10 -10,-10M52.671875,27l5,-5m-5,5l-5,-5"></path><g transform="matrix(1,0,0,1,10,0)" class="escape"><g class="label"><rect width="32.671875" height="24" rx="3" ry="3"></rect><text x="0" y="0" transform="matrix(1,0,0,1,5,17)"><tspan>digit</tspan></text></g></g><text x="0" y="0" transform="matrix(1,0,0,1,35.5625,45)" class="repeat-label"><tspan>once</tspan><title><text x="0" y="0">repeats 2 times in total</text></title></text></g></g><g transform="matrix(1,0,0,1,207.3281,21)" class="match-fragment literal"><g class="label"><rect width="21.984375" height="24" rx="3" ry="3"></rect><text x="0" y="0" transform="matrix(1,0,0,1,5,17)"><tspan class="quote">“</tspan><tspan>-</tspan><tspan class="quote">”</tspan></text></g></g><g transform="matrix(1,0,0,1,239.3125,0)" class="match-fragment subexp"><rect rx="3" ry="3" class="subexp-box" transform="matrix(1,0,0,1,0,11)" width="77.671875" height="67"></rect><text x="0" y="0" transform="matrix(1,0,0,1,0,11)" class="subexp-label"><tspan>group #3</tspan></text><g transform="matrix(1,0,0,1,10,21)" class="regexp match match-fragment"><path d="M10,12q-10,0 -10,10v2q0,10 10,10h32.671875q10,0 10,-10v-2q0,-10 -10,-10M52.671875,27l5,-5m-5,5l-5,-5"></path><g transform="matrix(1,0,0,1,10,0)" class="escape"><g class="label"><rect width="32.671875" height="24" rx="3" ry="3"></rect><text x="0" y="0" transform="matrix(1,0,0,1,5,17)"><tspan>digit</tspan></text></g></g><text x="0" y="0" transform="matrix(1,0,0,1,35.5625,45)" class="repeat-label"><tspan>once</tspan><title><text x="0" y="0">repeats 2 times in total</text></title></text></g></g></g><path d="M30,33H0M301.984375,33H336.984375"></path><circle cx="0" cy="33" r="5"></circle><circle cx="336.984375" cy="33" r="5"></circle></g></svg>
          